<svg xmlns="http://www.w3.org/2000/svg" width="600" height="380" viewBox="279.6 328.6 464.8 378">
  <defs>
    <!-- Mask to cut out the lens circle from the camera body -->
    <mask id="lensCutout" maskContentUnits="userSpaceOnUse">
      <!-- White = visible, Black = hidden -->
      <rect x="0" y="0" width="1024" height="1024" fill="white"/>
      <!-- Cut out the lens circle -->
      <circle cx="512" cy="549.1" r="140" fill="black"/>
    </mask>
  </defs>

  <!-- Camera body with lens cutout -->
  <g fill="#666666" mask="url(#lensCutout)">
    <!-- Main camera body -->
    <rect x="279.6" y="391.6" width="464.8" height="315" rx="35" ry="35"/>
    <!-- Viewfinder hump -->
    <path d="M 412.6 395.1 L 433.6 332.1 Q 437.1 328.6 447.6 328.6 L 576.4 328.6 Q 586.9 328.6 590.4 332.1 L 611.4 395.1 Z"/>
  </g>

  <!-- Aperture blades in gold/yellow (inverted - blades are filled) -->
  <g transform="translate(512, 549.1) scale(9) translate(-16, -16)">
    <!-- Individual aperture blades filled in gold -->
    <path fill="#e5a00d" d="M20.198 11.75h8.34c0.451 1.272 0.712 2.74 0.712 4.268 0 2.788-0.868 5.374-2.349 7.501l0.028-0.043z"/>
    <path fill="#e5a00d" d="M27.919 10.25h-13.506l4.181-7.242c4.137 0.858 7.512 3.548 9.29 7.164l0.035 0.078z"/>
    <path fill="#e5a00d" d="M16 2.75c0.331 0 0.656 0.026 0.982 0.050l-6.755 11.701-4.172-7.226c2.433-2.777 5.985-4.522 9.945-4.524h0z"/>
    <path fill="#e5a00d" d="M5.056 8.544l6.758 11.706h-8.353c-0.451-1.272-0.712-2.739-0.712-4.268 0-2.78 0.863-5.358 2.335-7.482l-0.029 0.044z"/>
    <path fill="#e5a00d" d="M4.081 21.75h13.506l-4.18 7.242c-4.138-0.858-7.513-3.548-9.291-7.164l-0.035-0.078z"/>
    <path fill="#e5a00d" d="M16 29.25c-0.331 0-0.656-0.026-0.982-0.050l6.754-11.697 4.157 7.241c-2.432 2.766-5.977 4.503-9.929 4.506h-0z"/>
  </g>
</svg>
